{"title":"Moon 2009 720p.BRRip.x264.Feel-Free","uid":6086444,"size":1360501109,"categoryP":"video","categoryS":"hd___movies","magnet":"?xt=urn:btih:dd8910b237647fb10a21002705e5edb7748f593f&amp;dn=Moon+2009+720p.BRRip.x264.Feel-Free&amp;tr=udp%3A%2F%2Ftracker.openbittorrent.com%3A80&amp;tr=udp%3A%2F%2Fopen.demonii.com%3A1337&amp;tr=udp%3A%2F%2Ftracker.coppersurfer.tk%3A6969&amp;tr=udp%3A%2F%2Fexodus.desync.com%3A6969","seeders":2,"leechers":0,"uploader":"neon","files":-1,"time":1294350642,"description":"Genre: Drama | Mystery | Sci-Fi\nLanguage:English\n &lt;a href=&quot; http://www.imdb.com/title/tt1182345/&quot; rel=&quot;nofollow&quot; target=&quot;_NEW&quot;&gt; http://www.imdb.com/title/tt1182345/&lt;/a&gt;\nSource:1080p.BluRay\n\n\nFormat : Matroska\nFile size : 1.26 GiB\nDuration : 1h 36mn\nOverall bit rate : 1 866 Kbps\n\n\nVideo\nFormat settings, CABAC : Yes\nFormat settings, ReFrames : 4 frames\nFormat settings, GOP : M=1, N=16\nCodec ID : V_MPEG4/ISO/AVC\nDuration : 1h 36mn\nBit rate : 1 500 Kbps\nWidth : 1 280 pixels\nHeight : 544 pixels\nDisplay aspect ratio : 2.35:1\nFrame rate mode : Variable\nFrame rate : 23.976 fps\nColor space : YUV\nChroma subsampling : 4:2:0\nBit depth : 8 bits\nScan type : Progressive\nBits/(Pixel*Frame) : 0.090\nStream size : 1 002 MiB (77%)\nWriting library : x264\n\n\nAudio\nID : 2\nFormat : AC-3\nFormat/Info : Audio Coding 3\nMode extension : CM (complete main)\nCodec ID : A_AC3\nDuration : 1h 36mn\nBit rate mode : Constant\nBit rate : 384 Kbps\nChannel(s) : 6 channels\nChannel positions : Front: L C R, Side: L R, LFE\nSampling rate : 48.0 KHz\nBit depth : 16 bits\nVideo delay : -1mn 5s\nStream size : 266 MiB (21%)\nLanguage : English\n\n\n\nPlot:\nAstronaut Sam Bell has a quintessentially personal encounter toward the end of his three-year stint on the Moon, where he, working alongside his computer, GERTY, sends back to Earth parcels of a resource that has helped diminish our planet's power problems\n &lt;a href=&quot;\nhttp://shareimage.org/images/xepp2nowafvdcmj1fs2.png&quot; rel=&quot;nofollow&quot; target=&quot;_NEW&quot;&gt;\nhttp://shareimage.org/images/xepp2nowafvdcmj1fs2.png&lt;/a&gt; &lt;a href=&quot;\nhttp://shareimage.org/images/6tvlbnuic8r525nkuurv.png&quot; rel=&quot;nofollow&quot; target=&quot;_NEW&quot;&gt;\nhttp://shareimage.org/images/6tvlbnuic8r525nkuurv.png&lt;/a&gt; &lt;a href=&quot;\nhttp://shareimage.org/images/joskm1yb1voczaqnghe2.png&quot; rel=&quot;nofollow&quot; target=&quot;_NEW&quot;&gt;\nhttp://shareimage.org/images/joskm1yb1voczaqnghe2.png&lt;/a&gt; &lt;a href=&quot;\nhttp://shareimage.org/images/yegu41bvbetoa93gku.png&quot; rel=&quot;nofollow&quot; target=&quot;_NEW&quot;&gt;\nhttp://shareimage.org/images/yegu41bvbetoa93gku.png&lt;/a&gt;","torrent":{"xt":"urn:btih:dd8910b237647fb10a21002705e5edb7748f593f","amp;dn":"Moon+2009+720p.BRRip.x264.Feel-Free","amp;tr":["udp%3A%2F%2Ftracker.openbittorrent.com%3A80","udp%3A%2F%2Fopen.demonii.com%3A1337","udp%3A%2F%2Ftracker.coppersurfer.tk%3A6969","udp%3A%2F%2Fexodus.desync.com%3A6969"],"infoHash":"dd8910b237647fb10a21002705e5edb7748f593f","infoHashBuffer":{"type":"Buffer","data":[221,137,16,178,55,100,127,177,10,33,0,39,5,229,237,183,116,143,89,63]},"announce":[],"urlList":[]}}